<?xml version="1.0" encoding="UTF-8"?>
<svg id="Layer_2" xmlns="http://www.w3.org/2000/svg" viewBox="0 0 1164.44 385.4">
  <defs>
    <style>
      .cls-1 {
        fill: #231f20;
      }

      .cls-2 {
        fill: #fff;
      }

      .cls-3 {
        fill: #ef6924;
      }
    </style>
  </defs>
  <g id="Layer_1-2" data-name="Layer_1">
    <g>
      <g>
        <g>
          <path d="M516.76,345.09c1.59,1.54,2.38,3.52,2.38,5.95,0,3.31-1.1,5.91-3.31,7.77-2.2,1.86-5.29,2.8-9.25,2.8h-17.38v-36.4h16.87c3.45,0,6.24.81,8.36,2.43,2.12,1.62,3.18,3.89,3.18,6.8,0,2.15-.67,3.92-2.02,5.3-1.35,1.39-3.09,2.25-5.2,2.59,2.67.31,4.8,1.23,6.38,2.77ZM496.22,330.99v9.23h8.72c1.81,0,3.21-.4,4.18-1.2.97-.8,1.46-1.97,1.46-3.51s-.49-2.59-1.46-3.36c-.97-.77-2.37-1.15-4.18-1.15h-8.72ZM510.34,354.4c1.11-.87,1.67-2.16,1.67-3.87s-.57-2.99-1.72-3.84c-1.15-.85-2.73-1.28-4.74-1.28h-9.33v10.3h9.49c1.98,0,3.53-.44,4.64-1.31Z"/>
          <path d="M536.57,325.2l8.82,16.1,8.92-16.1h7.44l-12.92,22.25v14.15h-7.02v-14.25l-12.71-22.15h7.49Z"/>
        </g>
        <polygon class="cls-3" points="690.71 298.27 700.54 298.27 700.54 295.25 678.34 295.25 645.19 367.11 643.07 367.11 614.73 295.41 614.65 295.25 588.57 295.25 588.57 298.27 598.16 298.27 600.41 300.54 600.41 379.54 598.16 381.81 588.57 381.81 588.57 384.83 615.73 384.83 615.73 381.81 606.13 381.81 603.88 379.54 603.88 312.69 606.35 312.69 634.87 384.83 640.07 384.83 673.32 313.99 675.8 313.99 675.8 379.54 673.55 381.81 663.72 381.81 663.72 384.83 700.54 384.83 700.54 381.81 690.71 381.81 688.46 379.54 688.46 300.54 690.71 298.27"/>
        <polygon class="cls-1" points="711.42 384.86 1018.54 384.86 711.42 384.86 711.42 384.86"/>
        <g>
          <polygon class="cls-2" points="802.52 315.25 796.07 315.25 796.07 364.86 825.55 364.86 825.55 358.91 802.52 358.91 802.52 315.25"/>
          <rect class="cls-2" x="781.97" y="315.25" width="6.45" height="49.61"/>
          <polygon class="cls-2" points="838.52 315.25 832.08 315.25 832.08 364.86 861.56 364.86 861.56 358.91 838.52 358.91 838.52 315.25"/>
          <polygon class="cls-2" points="754.47 356.85 754.18 356.85 738.87 315.25 731.65 315.25 750.5 365.35 757.73 365.35 776.58 315.25 769.77 315.25 754.47 356.85"/>
          <polygon class="cls-2" points="997.71 321.2 997.71 315.25 965.32 315.25 965.32 364.86 997.71 364.86 997.71 358.91 971.77 358.91 971.77 342.75 997.71 342.75 997.71 336.79 971.77 336.79 971.77 321.2 997.71 321.2"/>
          <path class="cls-2" d="M936.69,345.16h15.02c-.71,8.08-5.6,14.67-15.31,14.67-10.56,0-17.65-8.29-17.65-19.77s7.23-19.77,17.58-19.77c7.58,0,12.54,4.75,14.39,9.92l6.24-2.27c-3.33-8.72-10.91-13.75-20.76-13.75-13.75,0-24.1,10.49-24.1,25.87s10.28,25.87,24.31,25.87,21.9-9.78,22.32-24.38v-2.34h-22.04v5.95Z"/>
          <path class="cls-2" d="M886.08,314.75l-18.85,50.11h6.87l5.17-14.25h20.7l5.17,14.25h7.02l-18.85-50.11h-7.23ZM881.4,344.73l8.15-22.54h.28l8.22,22.54h-16.65Z"/>
        </g>
        <g>
          <path class="cls-3" d="M711.42,295.25v89.61h307.12s0-89.61,0-89.61h-307.12ZM757.73,365.36h-7.23l-18.85-50.11h7.23l15.31,41.6h.28l15.31-41.6h6.8l-18.85,50.11ZM788.42,364.86h-6.45v-49.61h6.45v49.61ZM825.55,364.86h-29.48v-49.61h6.45v43.66h23.03v5.95ZM861.56,364.86h-29.48v-49.61h6.45v43.66h23.03v5.95ZM905.15,364.86l-5.17-14.25h-20.7l-5.17,14.25h-6.87l18.85-50.11h7.23l18.85,50.11h-7.02ZM958.73,341.54c-.42,14.6-8.86,24.38-22.32,24.38s-24.31-10.49-24.31-25.87,10.35-25.87,24.1-25.87c9.85,0,17.43,5.03,20.76,13.75l-6.24,2.27c-1.84-5.17-6.8-9.92-14.39-9.92-10.35,0-17.58,8.29-17.58,19.77s7.09,19.77,17.65,19.77c9.71,0,14.6-6.59,15.31-14.67h-15.02v-5.95h22.04v2.34ZM997.71,321.2h-25.94v15.59h25.94v5.95h-25.94v16.16h25.94v5.95h-32.39v-49.61h32.39v5.95Z"/>
          <polygon class="cls-3" points="889.56 322.19 881.4 344.73 898.06 344.73 889.84 322.19 889.56 322.19"/>
        </g>
      </g>
      <path d="M744.27,28.22c-7.37-1.78-15.04-2.78-22.96-2.78-6.11,0-12.03.73-17.83,1.81-.02,0-.04,0-.07,0-1.28.16-2.62.42-3.99.7-2,.45-3.97.95-5.92,1.52-3.37,1.03-6.96,2.36-10.78,4.01-10.07,4.36-19.69,10.58-28.85,18.69-1.9,1.68-3.69,3.5-5.38,5.38-1.07,1.19-2.2,2.32-3.23,3.55-.82.97-1.55,2.02-2.32,3.03-1.06,1.39-2.21,2.7-3.19,4.16-2.21,3.29-7.26,2.12-7.59-1.83l-2.38-31.33c-.15-1.98-1.8-3.51-3.79-3.51h-33.45c-2.1,0-3.8,1.7-3.8,3.8v183.03c0,3.06,2.48,5.54,5.54,5.54h34.68c3.06,0,5.54-2.48,5.54-5.54v-75.63l.1-.1c-.02-.42-.08-.82-.1-1.24-.02-.67-.1-1.32-.1-2,0-21.92,10.42-41.36,26.52-53.79.17-.13.35-.26.53-.4,1.83-1.4,3.8-2.69,5.8-3.93.79-.48,1.56-1,2.38-1.44,1.15-.65,2.36-1.15,3.53-1.76,1.75-.92,3.61-1.63,5.47-2.31,1.85-.67,3.69-1.35,5.63-1.83.03,0,.05-.01.08-.02,5.76-1.58,10.55-2.5,16.81-2.5.22,0,.76.03.84.03,2.23.08,3.03-1.61,3.03-1.61,8.85-16.29,23.38-29.95,39.6-39.11,1.11-.63.93-2.28-.31-2.58Z"/>
      <path d="M1016.99,164.61c0-.31-.03-.61-.04-.93-.02-1.38-.08-2.74-.19-4.07-.07-.71-.18-1.41-.27-2.11-.12-.94-.25-1.89-.42-2.81-.13-.71-.29-1.4-.45-2.09-.21-.9-.43-1.8-.69-2.69-.2-.68-.41-1.35-.64-2.01-.28-.83-.59-1.65-.91-2.46-.25-.64-.52-1.27-.8-1.89-.81-1.8-1.74-3.55-2.77-5.27-.5-.81-1.04-1.6-1.59-2.39-.6-.88-1.26-1.73-1.92-2.58-.55-.7-1.07-1.4-1.67-2.08-1.81-2.07-3.81-4.03-5.99-5.88-7.13-5.46-15.49-10.05-25.14-13.72-1.81-.69-3.6-1.4-5.49-2.04-.14-.05-.27-.11-.41-.15-2.46-.85-4.87-1.66-7.3-2.49-1.88-.64-3.77-1.29-5.65-1.92-2.49-.85-5.03-1.73-7.51-2.56-4.62-1.54-8.61-3.46-12.04-5.71-6.73-3.43-11.39-10.34-11.39-18.42,0-9.92,6.98-18.19,16.29-20.23v-.02s8.06-2.69,21.89.67c6.39,1.55,14.07,4.54,22.71,9.55l4.48,2.86c2.46,1.57,5.69,1.22,7.75-.85l12.24-12.27c2.63-2.64,2.31-6.93-.56-9.3-8.07-6.66-17.19-12.08-27.13-15.91-10.99-4.24-22.89-6.65-35.38-6.65-2.16,0-4.26.19-6.39.32-4.59.47-9.1,1.22-13.49,2.28-.44.11-.88.23-1.32.34-2.43.57-4.76,1.24-7.01,2.03-.64.21-1.26.46-1.88.69-2.5.96-4.92,2-7.18,3.23-10.18,5.55-17.74,12.74-22.68,21.57-4.95,8.84-7.41,18.19-7.41,28.08,0,12.88,4.11,24.04,12.35,33.47,7.3,8.36,17.65,14.92,30.72,19.87,1.68.64,3.23,1.34,5.01,1.92.17.05.32.1.49.15,4.55,1.29,8.87,2.65,13.1,4.05.22.07.44.15.66.22,2.49.84,5.03,1.73,7.5,2.56,4.63,1.54,8.61,3.46,12.04,5.71,6.7,3.42,11.35,10.3,11.38,18.33-.03,9.89-7,18.13-16.29,20.17v.02s-1.77.56-4.96.84c-3.74.34-9.46.3-16.93-1.51-7.04-1.71-15.61-5.09-25.36-11.11l-8.2-5.24c-2.46-1.57-5.69-1.22-7.75.85l-13.67,13.75c-.09.09-.18.18-.27.27l-.26.26v.12c-.66.86-1.13,1.89-1.13,3.07s.46,2.21,1.13,3.07c.32.31.63.64.96.94.39.36.75.75,1.14,1.12,0,0,0,0,0,0h0c9.95,9.1,21.76,16.17,34.81,20.58,1.8.6,3.62,1.16,5.47,1.65.4.11.79.23,1.19.34,7.74,1.98,15.85,3.04,24.22,3.04,14.15,0,27.57-3.04,39.72-8.4.61-.27,1.19-.6,1.79-.88,9.84-5.5,17.22-12.53,22.05-21.17,4.95-8.84,7.41-18.19,7.41-28.08,0-.03,0-.06,0-.09Z"/>
      <path d="M1164.44,164.61c0-.31-.03-.61-.04-.93-.02-1.38-.08-2.74-.19-4.07-.07-.71-.18-1.41-.27-2.11-.12-.94-.25-1.89-.42-2.81-.13-.71-.29-1.4-.45-2.09-.21-.9-.43-1.8-.69-2.69-.2-.68-.41-1.35-.64-2.01-.28-.83-.59-1.65-.91-2.46-.25-.64-.52-1.27-.8-1.89-.81-1.8-1.74-3.55-2.77-5.27-.5-.81-1.04-1.6-1.59-2.39-.6-.88-1.26-1.73-1.92-2.58-.55-.7-1.07-1.4-1.67-2.08-1.81-2.07-3.81-4.03-5.99-5.88-7.13-5.46-15.49-10.05-25.14-13.72-1.81-.69-3.6-1.4-5.49-2.04-.14-.05-.27-.11-.41-.15-2.46-.85-4.87-1.66-7.3-2.49-1.88-.64-3.77-1.29-5.65-1.92-2.49-.85-5.03-1.73-7.51-2.56-4.62-1.54-8.61-3.46-12.04-5.71-6.73-3.43-11.39-10.34-11.39-18.42,0-9.92,6.98-18.19,16.29-20.23v-.02s8.06-2.69,21.89.67c6.39,1.55,14.07,4.54,22.71,9.55l4.48,2.86c2.46,1.57,5.69,1.22,7.75-.85l12.24-12.27c2.63-2.64,2.31-6.93-.56-9.3-8.07-6.66-17.19-12.08-27.13-15.91-10.99-4.24-22.89-6.65-35.38-6.65-2.16,0-4.26.19-6.39.32-4.59.47-9.1,1.22-13.49,2.28-.44.11-.88.23-1.32.34-2.43.57-4.76,1.24-7.01,2.03-.64.21-1.26.46-1.88.69-2.5.96-4.92,2-7.18,3.23-10.18,5.55-17.74,12.74-22.68,21.57-4.95,8.84-7.41,18.19-7.41,28.08,0,12.88,4.11,24.04,12.35,33.47,7.3,8.36,17.65,14.92,30.72,19.87,1.68.64,3.23,1.34,5.01,1.92.17.05.32.1.49.15,4.55,1.29,8.87,2.65,13.1,4.05.22.07.44.15.66.22,2.49.84,5.03,1.73,7.5,2.56,4.63,1.54,8.61,3.46,12.04,5.71,6.7,3.42,11.35,10.3,11.38,18.33-.03,9.89-7,18.13-16.29,20.17v.02s-1.77.56-4.96.84c-3.74.34-9.46.3-16.93-1.51-7.04-1.71-15.61-5.09-25.36-11.11l-8.2-5.24c-2.46-1.57-5.69-1.22-7.75.85l-13.67,13.75c-.09.09-.18.18-.27.27l-.26.26v.12c-.66.86-1.13,1.89-1.13,3.07s.46,2.21,1.13,3.07c.32.31.63.64.96.94.39.36.75.75,1.14,1.12,0,0,0,0,0,0h0c9.95,9.1,21.76,16.17,34.81,20.58,1.8.6,3.62,1.16,5.47,1.65.4.11.79.23,1.19.34,7.74,1.98,15.85,3.04,24.22,3.04,14.15,0,27.57-3.04,39.72-8.4.61-.27,1.19-.6,1.79-.88,9.84-5.5,17.22-12.53,22.05-21.17,4.95-8.84,7.41-18.19,7.41-28.08,0-.03,0-.06,0-.09Z"/>
      <path d="M493.34,27.59c-4.18-.54-8.4-.91-12.72-.91-21.81,0-41.9,7.15-58.25,19.12l-1.29-9.52c-.36-2.67-2.65-4.67-5.34-4.67h-28.55c-2.98,0-5.39,2.41-5.39,5.39v342.98c0,2.99,2.42,5.42,5.42,5.42h34.04c2.99,0,5.42-2.42,5.42-5.42v-171.74c15.52,10.14,34.03,16.09,53.96,16.09.63,0,1.25-.08,1.88-.09,53.71-1.01,96.95-44.79,96.95-98.73,0-50.26-37.55-91.66-86.11-97.92ZM418.9,119.21c2.26-22.87,17.74-42.72,39.07-51.26,14.02-5.62,27.27-5.47,39.21-2.17,28.12,7.78,48.24,34.8,45.16,66.03-2.85,28.87-26.3,52.37-55.16,55.38-12.74,1.33-24.75-1.27-35.09-6.65-21.61-11.23-35.81-34.75-33.19-61.34Z"/>
      <path d="M146.56,172.37c-1.99-1.98-5.18-2.14-7.3-.29-10.9,9.52-25.14,15.3-40.75,15.3-10.3,0-19.99-2.55-28.53-6.99-5.54-2.88-10.58-6.59-14.99-10.94l98.66-98.91h-.02s10.65-10.69,10.65-10.69c2.15-2.16,2.16-5.73-.11-7.77-38.68-34.65-98.16-33.39-135.33,3.78-38.47,38.47-38.47,100.85,0,139.32.08.08.17.15.25.23,21.38,21.23,50.05,30.62,77.91,28.22.4-.03.8-.04,1.19-.08,2.82-.28,5.62-.69,8.41-1.21.31-.06.64-.1.95-.16,2.87-.56,5.71-1.26,8.53-2.08.21-.06.43-.11.64-.17,2.91-.87,5.79-1.87,8.62-3.01.1-.04.21-.08.31-.12,10.47-4.26,20.36-10.39,29.14-18.39,2.25-2.05,2.22-5.61.07-7.75l-18.32-18.27ZM75.98,67.75c13.98-5.57,27.19-5.42,39.09-2.12,1.46.4,2.84.98,4.25,1.49l-79.31,78.66c-4-11.38-4.95-24.19-1.05-37.69,5.3-18.36,19.26-33.26,37.02-40.34Z"/>
      <path d="M849.61,172.37c-1.99-1.98-5.18-2.14-7.3-.29-10.9,9.52-25.14,15.3-40.75,15.3-10.3,0-19.99-2.55-28.53-6.99-5.54-2.88-10.58-6.59-14.99-10.94l98.66-98.91h-.02s10.65-10.69,10.65-10.69c2.15-2.16,2.16-5.73-.11-7.77-38.68-34.65-98.16-33.39-135.33,3.78-38.47,38.47-38.47,100.85,0,139.32.08.08.17.15.25.23,21.38,21.23,50.05,30.62,77.91,28.22.4-.03.8-.04,1.19-.08,2.82-.28,5.62-.69,8.41-1.21.31-.06.64-.1.95-.16,2.87-.56,5.71-1.26,8.53-2.08.21-.06.43-.11.64-.17,2.91-.87,5.79-1.87,8.62-3.01.1-.04.21-.08.31-.12,10.47-4.26,20.36-10.39,29.14-18.39,2.25-2.05,2.22-5.61.07-7.75l-18.32-18.27ZM779.03,67.75c13.98-5.57,27.19-5.42,39.09-2.12,1.46.4,2.84.98,4.25,1.49l-79.31,78.66c-4-11.38-4.95-24.19-1.05-37.69,5.3-18.36,19.26-33.26,37.02-40.34Z"/>
      <path d="M372.67,52.45s.04-.06.04-.1v-14.8c0-3.28-2.42-5.95-5.42-5.95h-28.77c-2.99,0-5.42,2.66-5.42,5.95v14.08h0c0,15.08-5.75,30.15-17.25,41.66-23.01,23-60.3,23-83.31,0-11.5-11.5-17.25-26.58-17.25-41.66h0s0,0,0,0V5.55c0-3.07-2.43-5.55-5.42-5.55h-28.77c-2.99,0-5.42,2.49-5.42,5.55v46.08s0,0,0,0h0c0,25.21,9.62,50.42,28.85,69.66,3.35,3.35,6.93,6.3,10.61,9.06-3.68,2.77-7.26,5.72-10.61,9.06-19.01,19.01-28.59,43.87-28.81,68.79,0,.04-.04.07-.04.11v9.53c0,3.42,2.43,6.19,5.42,6.19h28.77c2.99,0,5.42-2.77,5.42-6.19v-8.77h0c0-15.08,5.75-30.15,17.25-41.66,23.01-23.01,60.3-23.01,83.31,0,11.5,11.5,17.25,26.58,17.25,41.65h.06c-.01.06-.07.1-.07.16v21.36h-.02v59.23c0,2.99,2.43,5.42,5.42,5.42h28.77c2.99,0,5.42-2.42,5.42-5.42v-39.48s.02-.08.02-.12v-40.99c0-.06-.06-.1-.07-.16h.07c0-25.21-9.62-50.42-28.85-69.66-3.35-3.35-6.93-6.3-10.61-9.06,3.68-2.77,7.26-5.72,10.61-9.06,19.03-19.03,28.61-43.9,28.81-68.84Z"/>
    </g>
  </g>
</svg>