<?xml version="1.0" encoding="UTF-8"?>
<svg id="Layer_2" xmlns="http://www.w3.org/2000/svg" viewBox="0 0 942.27 314.73">
  <defs>
    <style>
      .cls-1 {
        fill: #231f20;
      }

      .cls-2 {
        fill: #ef6924;
      }
    </style>
  </defs>
  <g id="Layer_1-2" data-name="Layer_1">
    <g>
      <g>
        <polygon class="cls-1" points="361.88 10.6 396.73 10.6 396.73 0 318.06 0 200.61 252.31 193.09 252.31 92.69 .58 92.41 0 0 0 0 10.6 33.99 10.6 41.95 18.56 41.95 295.97 33.99 303.94 0 303.94 0 314.53 96.24 314.53 96.24 303.94 62.23 303.94 54.26 295.97 54.26 61.23 62.98 61.23 164.05 314.53 182.48 314.53 300.28 65.79 309.08 65.79 309.08 295.97 301.11 303.94 266.27 303.94 266.27 314.53 396.73 314.53 396.73 303.94 361.88 303.94 353.92 295.97 353.92 18.56 361.88 10.6"/>
        <path class="cls-2" d="M396.73,0v314.53s81.9,0,81.9,0V0s-81.9,0-81.9,0Z"/>
        <g>
          <polygon class="cls-1" points="412.28 254.77 454.88 270.45 454.88 270.74 412.28 286.42 412.28 293.82 463.59 274.51 463.59 267.11 412.28 247.8 412.28 254.77"/>
          <rect class="cls-1" x="412.28" y="235.68" width="50.81" height="6.6"/>
          <polygon class="cls-1" points="463.08 197.65 456.99 197.65 456.99 221.24 412.28 221.24 412.28 227.84 463.08 227.84 463.08 197.65"/>
          <polygon class="cls-1" points="463.08 160.77 456.99 160.77 456.99 184.36 412.28 184.36 412.28 190.97 463.08 190.97 463.08 160.77"/>
          <path class="cls-1" d="M463.08,147.92l-14.59-5.3v-21.19l14.59-5.3v-7.19l-51.32,19.31v7.4l51.32,19.31v-7.04ZM442.47,140.45l-23.08-8.35v-.29l23.08-8.42v17.06Z"/>
          <path class="cls-1" d="M437.68,109.01c15.75,0,26.49-10.52,26.49-24.9s-10.02-22.43-24.97-22.86h-2.39v22.57h6.1v-15.39c8.27.72,15.02,5.73,15.02,15.68,0,10.81-8.49,18.07-20.25,18.07s-20.25-7.4-20.25-18c0-7.77,4.86-12.85,10.16-14.73l-2.32-6.39c-8.93,3.41-14.08,11.18-14.08,21.27,0,14.08,10.74,24.68,26.49,24.68Z"/>
          <polygon class="cls-1" points="463.08 21.33 456.99 21.33 456.99 47.9 440.44 47.9 440.44 21.33 434.34 21.33 434.34 47.9 418.37 47.9 418.37 21.33 412.28 21.33 412.28 54.5 463.08 54.5 463.08 21.33"/>
        </g>
      </g>
      <g>
        <path class="cls-1" d="M638.18,217.25l-.62,47.73.62,46.62c0,.93-.44,1.39-1.32,1.39h-10.75c-.93,0-1.39-.46-1.39-1.39l.49-44.33v-1.53h-51.83v1.53l.56,44.33c0,.93-.44,1.39-1.32,1.39h-10.75c-.93,0-1.39-.46-1.39-1.39l.62-46.62-.62-47.73c0-.92.46-1.39,1.39-1.39h10.75c.88,0,1.32.46,1.32,1.39l-.49,38.71h51.69l-.42-38.71c0-.92.46-1.39,1.39-1.39h10.75c.88,0,1.32.46,1.32,1.39Z"/>
        <path class="cls-1" d="M693.82,314.73c-9.3,0-17.41-2.08-24.35-6.24-6.94-4.16-12.34-10-16.2-17.52-3.86-7.52-5.79-16.34-5.79-26.47s1.92-19.25,5.76-26.82c3.84-7.56,9.24-13.38,16.2-17.45,6.96-4.07,15.11-6.11,24.46-6.11s17.49,2.04,24.46,6.11c6.96,4.07,12.37,9.88,16.24,17.41,3.86,7.54,5.79,16.51,5.79,26.92s-1.93,18.95-5.79,26.47c-3.86,7.52-9.29,13.34-16.27,17.48-6.98,4.14-15.15,6.21-24.49,6.21ZM693.89,304.6c6.89,0,12.8-1.61,17.73-4.82,4.93-3.21,8.72-7.81,11.38-13.77,2.66-5.97,3.99-13.11,3.99-21.44s-1.32-15.51-3.95-21.54c-2.64-6.04-6.43-10.67-11.38-13.91-4.95-3.24-10.89-4.86-17.83-4.86s-12.8,1.61-17.73,4.82c-4.93,3.22-8.7,7.84-11.31,13.88-2.61,6.04-3.92,13.24-3.92,21.61s1.33,15.41,3.99,21.4c2.66,5.99,6.45,10.59,11.38,13.81,4.93,3.22,10.81,4.82,17.66,4.82Z"/>
        <path class="cls-1" d="M777.08,313h-11.03c-.93,0-1.39-.46-1.39-1.39l.76-46.69-.62-39.13h-26.71c-.93,0-1.39-.46-1.39-1.39v-7.15c0-.92.46-1.39,1.39-1.39h66.95c.88,0,1.32.46,1.32,1.39v7.15c0,.93-.44,1.39-1.32,1.39h-26.78l-.62,39.13.76,46.69c.05.93-.39,1.39-1.32,1.39Z"/>
        <path class="cls-1" d="M874,313h-59.67c-.93,0-1.39-.46-1.39-1.39l.62-48.91-.62-45.44c0-.92.46-1.39,1.39-1.39h58.56c.88,0,1.32.46,1.32,1.39v7.08c0,.93-.44,1.39-1.32,1.39h-46.55l-.56,30.53h43.78c.88,0,1.32.46,1.32,1.39v7.01c0,.93-.44,1.39-1.32,1.39h-43.78l.56,37.12h47.66c.88,0,1.32.46,1.32,1.39v7.08c0,.93-.44,1.39-1.32,1.39Z"/>
        <path class="cls-1" d="M940.88,313h-54.81c-.83,0-1.25-.46-1.25-1.39l.62-49.68-.62-44.68c0-.92.42-1.39,1.25-1.39h10.75c.92,0,1.39.46,1.39,1.39l-.62,44.13.62,41.77h42.67c.92,0,1.39.46,1.39,1.39v7.08c0,.93-.46,1.39-1.39,1.39Z"/>
      </g>
    </g>
  </g>
</svg>