<?xml version="1.0" encoding="UTF-8"?>
<svg id="Layer_2" xmlns="http://www.w3.org/2000/svg" viewBox="0 0 951.68 316.52">
  <defs>
    <style>
      .cls-1 {
        fill: #231f20;
      }

      .cls-2 {
        fill: #ef6924;
      }
    </style>
  </defs>
  <g id="Layer_1-2" data-name="Layer_1">
    <g>
      <g>
        <polygon class="cls-1" points="361.88 10.6 396.73 10.6 396.73 0 318.06 0 200.61 252.31 193.09 252.31 92.69 .58 92.41 0 0 0 0 10.6 33.99 10.6 41.95 18.56 41.95 295.97 33.99 303.94 0 303.94 0 314.53 96.24 314.53 96.24 303.94 62.23 303.94 54.26 295.97 54.26 61.23 62.98 61.23 164.05 314.53 182.48 314.53 300.28 65.79 309.08 65.79 309.08 295.97 301.11 303.94 266.27 303.94 266.27 314.53 396.73 314.53 396.73 303.94 361.88 303.94 353.92 295.97 353.92 18.56 361.88 10.6"/>
        <path class="cls-2" d="M396.73,0v314.53s81.9,0,81.9,0V0s-81.9,0-81.9,0Z"/>
        <g>
          <polygon class="cls-1" points="412.28 254.77 454.88 270.45 454.88 270.74 412.28 286.42 412.28 293.82 463.59 274.51 463.59 267.11 412.28 247.8 412.28 254.77"/>
          <rect class="cls-1" x="412.28" y="235.68" width="50.81" height="6.6"/>
          <polygon class="cls-1" points="463.08 197.65 456.99 197.65 456.99 221.24 412.28 221.24 412.28 227.84 463.08 227.84 463.08 197.65"/>
          <polygon class="cls-1" points="463.08 160.77 456.99 160.77 456.99 184.36 412.28 184.36 412.28 190.97 463.08 190.97 463.08 160.77"/>
          <path class="cls-1" d="M463.08,147.92l-14.59-5.3v-21.19l14.59-5.3v-7.19l-51.32,19.31v7.4l51.32,19.31v-7.04ZM442.47,140.45l-23.08-8.35v-.29l23.08-8.42v17.06Z"/>
          <path class="cls-1" d="M437.68,109.01c15.75,0,26.49-10.52,26.49-24.9s-10.02-22.43-24.97-22.86h-2.39v22.57h6.1v-15.39c8.27.72,15.02,5.73,15.02,15.68,0,10.81-8.49,18.07-20.25,18.07s-20.25-7.4-20.25-18c0-7.77,4.86-12.85,10.16-14.73l-2.32-6.39c-8.93,3.41-14.08,11.18-14.08,21.27,0,14.08,10.74,24.68,26.49,24.68Z"/>
          <polygon class="cls-1" points="463.08 21.33 456.99 21.33 456.99 47.9 440.44 47.9 440.44 21.33 434.34 21.33 434.34 47.9 418.37 47.9 418.37 21.33 412.28 21.33 412.28 54.5 463.08 54.5 463.08 21.33"/>
        </g>
      </g>
      <g>
        <path class="cls-1" d="M618.7,314.75h-56.01c-.85,0-1.28-.47-1.28-1.42l.64-50.76-.64-45.66c0-.94.43-1.42,1.28-1.42h10.99c.94,0,1.42.47,1.42,1.42l-.64,45.09.64,42.68h43.6c.94,0,1.42.47,1.42,1.42v7.23c0,.95-.47,1.42-1.42,1.42Z"/>
        <path class="cls-1" d="M640.74,314.75h-10.92c-.85,0-1.28-.47-1.28-1.42l.64-49.2-.64-47.22c0-.94.43-1.42,1.28-1.42h10.92c.94,0,1.42.47,1.42,1.42l-.71,47.22.71,49.2c0,.95-.47,1.42-1.42,1.42Z"/>
        <path class="cls-1" d="M683.92,313.61l-33.75-96.49c-.43-1.09-.07-1.63,1.06-1.63h11.91c.8,0,1.3.38,1.49,1.13l28.85,87.7,28.64-87.7c.19-.76.68-1.13,1.49-1.13h10.21c1.18,0,1.56.54,1.13,1.63l-33.39,96.49c-.19.76-.69,1.13-1.49,1.13h-14.68c-.76,0-1.25-.38-1.49-1.13Z"/>
        <path class="cls-1" d="M755.31,314.75h-10.92c-.85,0-1.28-.47-1.28-1.42l.64-49.2-.64-47.22c0-.94.43-1.42,1.28-1.42h10.92c.94,0,1.42.47,1.42,1.42l-.71,47.22.71,49.2c0,.95-.47,1.42-1.42,1.42Z"/>
        <path class="cls-1" d="M782.67,314.75h-10c-.95,0-1.42-.47-1.42-1.42l.57-49.06-.5-47.36c0-.94.47-1.42,1.42-1.42h13.04c.76,0,1.3.31,1.63.92l51.89,80.75-.35-37.01-.14-43.24c0-.94.47-1.42,1.42-1.42h10c.9,0,1.35.47,1.35,1.42l-.57,47.36.5,49.06c0,.95-.45,1.42-1.35,1.42h-13.82c-.76,0-1.32-.31-1.7-.92l-51.18-79.76.43,36.72.14,42.54c0,.95-.45,1.42-1.35,1.42Z"/>
        <path class="cls-1" d="M907.8,316.52c-8.89,0-16.76-2.11-23.61-6.34-6.85-4.23-12.22-10.21-16.09-17.94-3.88-7.73-5.81-16.79-5.81-27.19s1.94-19.59,5.81-27.29c3.88-7.7,9.2-13.63,15.99-17.79,6.78-4.16,14.59-6.24,23.43-6.24,11.11,0,20.25,2.73,27.44,8.19,7.18,5.46,11.98,13.36,14.39,23.71.24.99-.19,1.49-1.28,1.49h-10.78c-.85,0-1.37-.4-1.56-1.21-1.61-7.28-4.85-12.76-9.71-16.45-4.87-3.69-11.01-5.53-18.43-5.53-6.38,0-11.93,1.64-16.66,4.93-4.73,3.29-8.4,8.01-11.02,14.18-2.62,6.17-3.93,13.58-3.93,22.22s1.35,15.75,4.04,21.87c2.69,6.12,6.45,10.85,11.27,14.18,4.82,3.33,10.44,5,16.87,5s11.76-1.35,16.13-4.04c4.37-2.69,7.69-6.52,9.96-11.48,2.27-4.96,3.45-10.82,3.54-17.58h-29.63c-.95,0-1.42-.47-1.42-1.42v-6.95c0-.94.47-1.42,1.42-1.42h42.18c.9,0,1.35.54,1.35,1.63.09,11.11-1.54,20.5-4.89,28.18-3.36,7.68-8.31,13.48-14.85,17.4-6.55,3.92-14.59,5.88-24.14,5.88Z"/>
      </g>
    </g>
  </g>
</svg>