<?xml version="1.0" encoding="UTF-8"?>
<svg id="Layer_2" xmlns="http://www.w3.org/2000/svg" viewBox="0 0 1291.05 283.91">
  <defs>
    <style>
      .cls-1 {
        fill: #231f20;
      }

      .cls-2 {
        fill: #fff;
      }

      .cls-3 {
        fill: #e6642b;
      }
    </style>
  </defs>
  <g id="Layer_1-2" data-name="Layer_1">
    <g>
      <g>
        <path class="cls-1" d="M50.7,183.56c-13.96,0-25.44-3.37-34.43-10.11-8.99-6.74-14.41-16.26-16.27-28.54h23.01c1.5,5.75,4.67,10.26,9.53,13.52,4.86,3.27,10.91,4.9,18.16,4.9,8.99,0,15.68-1.62,20.09-4.86,4.4-3.23,6.61-7.76,6.61-13.57,0-3.77-1.37-6.89-4.09-9.35-2.73-2.46-6.2-4.33-10.43-5.62-4.23-1.28-8.91-2.46-14.07-3.5-5.15-1.05-10.34-2.36-15.55-3.95-5.21-1.59-9.93-3.61-14.15-6.07-4.23-2.46-7.69-6.11-10.38-10.96-2.69-4.86-4.04-10.7-4.04-17.53,0-11.38,4.16-20.37,12.49-26.96,8.33-6.59,19.5-9.89,33.53-9.89s24.81,3.1,32.9,9.3c8.09,6.2,13.06,14.76,14.92,25.66h-23.01c-2.94-9.83-11.21-14.74-24.81-14.74-7.49,0-13.2,1.55-17.12,4.63-3.93,3.09-5.89,7.09-5.89,12,0,5.39,2.52,9.56,7.55,12.5,5.03,2.93,11.16,5.17,18.38,6.7,7.22,1.52,14.46,3.34,21.71,5.44,7.25,2.1,13.39,5.82,18.43,11.15,5.03,5.33,7.55,12.4,7.55,21.21,0,11.03-4.54,20.22-13.62,27.6-9.08,7.37-21.41,11.05-36.99,11.05Z"/>
        <path class="cls-1" d="M158.34,181.76V0h23.01v181.76h-23.01Z"/>
        <path class="cls-1" d="M300.05,183.56c-18.28,0-32.82-5.72-43.64-17.17-10.82-11.44-16.22-27.79-16.22-49.03s5.41-37.6,16.22-49.08c10.81-11.47,25.36-17.21,43.64-17.21,14.26,0,25.92,3.49,34.96,10.47,9.05,6.98,15.49,16.68,19.32,29.08h-23.91c-5.87-12.89-16-19.33-30.38-19.33-11.27,0-20.22,3.96-26.88,11.87-6.65,7.91-9.98,19.29-9.98,34.15s3.31,26.25,9.93,34.16c6.62,7.9,15.59,11.86,26.92,11.86,10.07,0,18.01-3.01,23.82-9.03,5.81-6.02,9.23-13.14,10.25-21.35h-35.95v-19.32h58.96v9.08c0,18.51-5.09,33.28-15.28,44.31-10.19,11.02-24.12,16.53-41.8,16.53Z"/>
        <path class="cls-1" d="M415.96,181.76V52.87h30.38l55.19,96.71h.9V52.87h23.01v128.89h-30.38l-55.19-96.62h-.9v96.62h-23.01Z"/>
        <path class="cls-1" d="M575.1,181.76l46.92-128.89h28.49l47.01,128.89h-24l-9.89-27.6h-54.65l-9.98,27.6h-23.91ZM616.09,133.95h40.36l-19.69-55.28h-.9l-19.77,55.28Z"/>
        <polygon class="cls-1" points="826.38 52.87 724.18 52.87 724.18 73.19 763.73 73.19 763.77 283.91 786.78 283.91 786.78 73.19 826.38 73.19 826.38 52.87"/>
        <path class="cls-1" d="M932.13,183.56c-16.29,0-29.12-4.89-38.46-14.69-9.35-9.8-14.03-23.65-14.03-41.57V52.87h23.01v74.43c0,11.38,2.68,20.24,8.04,26.56s12.51,9.48,21.43,9.48,15.92-3.16,21.35-9.48c5.42-6.32,8.13-15.18,8.13-26.56V52.87h23.01v74.43c0,17.79-4.71,31.62-14.12,41.48-9.41,9.86-22.21,14.78-38.38,14.78Z"/>
        <path class="cls-1" d="M1048.13,181.76V52.87h53.39c12.52,0,22.71,3.69,30.56,11.06,7.85,7.37,11.78,17.2,11.78,29.48,0,6.24-1.02,11.87-3.06,16.9-2.04,5.03-4.75,9.03-8.13,11.99-3.39,2.97-6.64,5.28-9.75,6.92-3.12,1.65-6.26,2.89-9.44,3.73l34.07,48.81h-25.8l-33.17-47.82h-17.44v47.82h-23.01ZM1071.14,113.63h28.67c6.35,0,11.45-1.78,15.28-5.35,3.84-3.57,5.75-8.54,5.75-14.92s-1.9-11.34-5.71-14.88c-3.8-3.53-8.97-5.3-15.5-5.3h-28.49v40.45Z"/>
        <path class="cls-1" d="M1204.58,181.76V52.87h84.67v20.32h-61.66v34.06h57.98v19.33h-57.98v34.96h63.46v20.23h-86.47Z"/>
      </g>
      <g>
        <path class="cls-1" d="M830.7,247.42c1.46,1.41,2.19,3.23,2.19,5.46,0,3.04-1.01,5.42-3.03,7.13-2.02,1.71-4.85,2.56-8.49,2.56h-15.95v-33.4h15.47c3.17,0,5.72.74,7.67,2.23,1.95,1.49,2.92,3.57,2.92,6.23,0,1.97-.62,3.6-1.86,4.87-1.24,1.27-2.83,2.06-4.78,2.38,2.45.28,4.4,1.13,5.86,2.54ZM811.87,234.49v8.47h8c1.66,0,2.94-.37,3.83-1.11.89-.74,1.34-1.81,1.34-3.22s-.45-2.38-1.34-3.08c-.89-.71-2.17-1.06-3.83-1.06h-8ZM824.82,255.96c1.02-.8,1.53-1.98,1.53-3.55s-.52-2.74-1.58-3.53c-1.05-.78-2.5-1.18-4.35-1.18h-8.56v9.45h8.7c1.82,0,3.24-.4,4.25-1.2Z"/>
        <path class="cls-1" d="M848.89,229.18l8.09,14.77,8.18-14.77h6.82l-11.85,20.41v12.98h-6.44v-13.08l-11.66-20.32h6.87Z"/>
      </g>
      <polygon class="cls-3" points="990.29 204.47 999.31 204.47 999.31 201.7 978.94 201.7 948.53 267.62 946.58 267.62 920.59 201.85 920.52 201.7 896.59 201.7 896.59 204.47 905.39 204.47 907.45 206.55 907.45 279.03 905.39 281.11 896.59 281.11 896.59 283.88 921.51 283.88 921.51 281.11 912.7 281.11 910.64 279.03 910.64 217.7 912.9 217.7 939.07 283.88 943.84 283.88 974.34 218.89 976.62 218.89 976.62 279.03 974.56 281.11 965.53 281.11 965.53 283.88 999.31 283.88 999.31 281.11 990.29 281.11 988.23 279.03 988.23 206.55 990.29 204.47"/>
      <path class="cls-3" d="M1291.05,201.7h-281.76s0,82.21,0,82.21h281.76s0-82.21,0-82.21Z"/>
      <g>
        <polygon class="cls-2" points="1062.83 220.05 1048.78 258.21 1048.52 258.21 1034.48 220.05 1027.85 220.05 1045.14 266.02 1051.78 266.02 1069.07 220.05 1062.83 220.05"/>
        <rect class="cls-2" x="1074.01" y="220.05" width="5.92" height="45.51"/>
        <polygon class="cls-2" points="1114 265.56 1114 260.1 1092.87 260.1 1092.87 220.05 1086.95 220.05 1086.95 265.56 1114 265.56"/>
        <polygon class="cls-2" points="1147.03 265.56 1147.03 260.1 1125.9 260.1 1125.9 220.05 1119.98 220.05 1119.98 265.56 1147.03 265.56"/>
        <path class="cls-2" d="M1158.54,265.56l4.75-13.07h18.99l4.75,13.07h6.44l-17.3-45.97h-6.63l-17.3,45.97h6.31ZM1165.24,247.09l7.48-20.68h.26l7.54,20.68h-15.28Z"/>
        <path class="cls-2" d="M1193.4,242.8c0,14.11,9.43,23.73,22.3,23.73s20.09-8.97,20.48-22.37v-2.15h-20.22v5.46h13.78c-.65,7.41-5.14,13.46-14.04,13.46-9.69,0-16.19-7.61-16.19-18.14s6.63-18.14,16.13-18.14c6.96,0,11.51,4.36,13.2,9.1l5.72-2.08c-3.06-8-10.01-12.61-19.05-12.61-12.61,0-22.11,9.62-22.11,23.73Z"/>
        <polygon class="cls-2" points="1271.94 265.56 1271.94 260.1 1248.14 260.1 1248.14 245.27 1271.94 245.27 1271.94 239.81 1248.14 239.81 1248.14 225.51 1271.94 225.51 1271.94 220.05 1242.23 220.05 1242.23 265.56 1271.94 265.56"/>
      </g>
    </g>
  </g>
</svg>